<?xml version="1.0" encoding="UTF-8" standalone="no"?>
<!DOCTYPE svg PUBLIC "-//W3C//DTD SVG 1.1//EN" "http://www.w3.org/Graphics/SVG/1.1/DTD/svg11.dtd">
<svg width="100%" height="100%" viewBox="0 0 2400 3000" version="1.1" xmlns="http://www.w3.org/2000/svg" xmlns:xlink="http://www.w3.org/1999/xlink" xml:space="preserve" xmlns:serif="http://www.serif.com/" style="fill-rule:evenodd;clip-rule:evenodd;stroke-linejoin:round;stroke-miterlimit:2;">
    <g transform="matrix(1.21429,0,0,0.997191,-242.714,-33.4494)">
        <g id="Balken-6" serif:id="Balken 6">
            <rect x="1672" y="730" width="198" height="1780"/>
        </g>
    </g>
    <g transform="matrix(1.21429,0,0,0.651685,-536.571,833.77)">
        <g id="Balken-5" serif:id="Balken 5">
            <rect x="1672" y="730" width="198" height="1780"/>
        </g>
    </g>
    <g transform="matrix(1.21429,0,0,0.43427,-840.143,1379.48)">
        <g id="Balken-4" serif:id="Balken 4">
            <rect x="1672" y="730" width="198" height="1780"/>
        </g>
    </g>
    <g transform="matrix(1.21429,0,0,0.302809,-1137.64,1709.45)">
        <g id="Balken-3" serif:id="Balken 3">
            <rect x="1672" y="730" width="198" height="1780"/>
        </g>
    </g>
    <g transform="matrix(1.21429,0,0,0.217135,-1431.5,1924.49)">
        <g id="Balken-2" serif:id="Balken 2">
            <rect x="1672" y="730" width="198" height="1780"/>
        </g>
    </g>
    <g transform="matrix(1.21429,0,0,0.174719,-1736.29,2030.96)">
        <g id="Balken-1" serif:id="Balken 1">
            <g>
                <rect x="1672" y="730" width="198" height="1780"/>
            </g>
        </g>
    </g>
    <g transform="matrix(1.21429,0,0,1,-248.786,-40.5)">
        <g id="Arrow">
            <path d="M447,2079L447,2039C447,2039 461.452,2040.62 469.679,2040.58C588.485,2040.12 842.781,1927.43 982,1812C1140,1681 1288.17,1440.33 1389,1255C1481.09,1085.74 1552.58,812.073 1573.13,730C1573.43,728.787 1574,726.505 1574,726.505L1510,793L1508,749L1635,571L1646,818L1611,857L1607,742C1607,742 1606.1,745.019 1605.64,746.101C1574.27,820.071 1512.02,1105.78 1423,1270C1322.17,1456 1164,1708.67 1001,1844C852.601,1967.21 559.659,2095.71 458.228,2081.41C454.172,2080.84 447,2079 447,2079Z"/>
        </g>
    </g>
</svg>
