<?xml version="1.0" encoding="UTF-8" standalone="no"?>
<!DOCTYPE svg PUBLIC "-//W3C//DTD SVG 1.1//EN" "http://www.w3.org/Graphics/SVG/1.1/DTD/svg11.dtd">
<svg width="100%" height="100%" viewBox="0 0 100 100" version="1.1" xmlns="http://www.w3.org/2000/svg" xmlns:xlink="http://www.w3.org/1999/xlink" xml:space="preserve" xmlns:serif="http://www.serif.com/" style="fill-rule:evenodd;clip-rule:evenodd;stroke-linejoin:round;stroke-miterlimit:2;">
    <g transform="matrix(0.18,0,0,0.18,0,0)">
        <g transform="matrix(0.841751,0,0,0.948047,56.3973,8.53242)">
            <path d="M593,109.273L593,458.727C593,524.004 533.311,577 459.791,577L66.209,577C-7.311,577 -67,524.004 -67,458.727L-67,109.273C-67,43.996 -7.311,-9 66.209,-9L459.791,-9C533.311,-9 593,43.996 593,109.273Z" style="fill:white;"/>
        </g>
        <g transform="matrix(0.104675,0,0,0.1058,277.778,284)">
            <g transform="matrix(1,0,0,1,-2222.22,-2222.22)">
                <g transform="matrix(123.457,0,0,123.457,0,0)">
                    <path d="M13.589,26.521C13.292,26.027 13.306,25.403 13.624,24.922L18.019,18.276L12.024,13.137C11.471,12.663 11.339,11.851 11.714,11.226L16.018,4.054C14.297,2.702 12.171,1.966 9.983,1.964C4.533,1.964 0.115,6.381 0.115,11.832C0.115,12.604 0.213,13.352 0.381,14.073C1.751,22.587 11.216,31.568 18,34.034C18.025,34.025 18.052,34.012 18.077,34.002L13.589,26.521Z" style="fill:rgb(207,0,0);fill-rule:nonzero;"/>
                    <path d="M26.018,1.966C23.253,1.966 20.77,3.117 18.981,4.949L14.939,11.686L20.978,16.862C21.549,17.352 21.667,18.2 21.252,18.828L16.648,25.79L20.809,32.725C27.147,29.196 34.43,21.462 35.618,14.076C35.788,13.355 35.886,12.607 35.886,11.835C35.885,6.383 31.467,1.966 26.018,1.966Z" style="fill:rgb(207,0,0);fill-rule:nonzero;"/>
                </g>
            </g>
        </g>
    </g>
</svg>
